<?xml version="1.0" standalone="no"?>
<!DOCTYPE svg PUBLIC "-//W3C//DTD SVG 20010904//EN"
 "http://www.w3.org/TR/2001/REC-SVG-20010904/DTD/svg10.dtd">
<svg version="1.0" xmlns="http://www.w3.org/2000/svg"
 width="700.000000pt" height="700.000000pt" viewBox="0 0 700.000000 700.000000"
 preserveAspectRatio="xMidYMid meet">
<metadata>
Created by potrace 1.11, written by Peter Selinger 2001-2013
</metadata>
<g transform="translate(0.000000,700.000000) scale(0.100000,-0.100000)"
fill="#000000" stroke="none">
<path d="M140 3500 l0 -2419 805 0 c753 0 805 1 806 17 0 9 0 118 0 240 -1
123 1 228 5 233 3 5 28 -8 57 -29 122 -90 303 -194 449 -258 l47 -21 36 101
c20 56 49 135 65 176 26 69 117 319 210 580 21 58 70 193 109 300 40 107 81
222 92 255 11 33 25 70 31 82 6 13 9 25 7 27 -2 1 -31 20 -63 40 -171 108
-322 324 -350 500 -4 21 -8 42 -11 46 -8 13 -8 191 -1 250 39 291 270 561 557
648 94 29 128 33 282 37 76 2 140 5 143 7 4 5 248 672 445 1218 61 168 114
314 119 325 5 11 12 30 15 43 l7 24 -499 -5 c-479 -5 -569 -10 -723 -42 -14
-2 -50 -10 -80 -16 -30 -6 -59 -12 -65 -13 -34 -7 -174 -53 -255 -83 -191 -72
-384 -175 -548 -291 -40 -29 -74 -52 -76 -52 -2 0 -3 112 -2 250 l1 250 -807
-1 -808 0 0 -2419z"/>
<path d="M5197 5647 c-54 -149 -102 -281 -107 -292 -10 -25 -42 -112 -68 -185
-11 -30 -85 -236 -166 -457 -80 -221 -146 -403 -146 -405 0 -1 120 -3 267 -3
l268 0 0 -440 c0 -511 -4 -544 -82 -715 -74 -165 -258 -334 -433 -401 -111
-42 -178 -52 -390 -55 -113 -1 -208 -3 -211 -3 -8 -1 -29 -55 -114 -291 -105
-290 -117 -324 -145 -395 -11 -28 -218 -601 -274 -760 -26 -71 -51 -138 -57
-148 -9 -17 14 -18 563 -14 315 3 582 7 593 10 11 2 47 8 80 11 286 32 689
180 955 351 82 53 249 176 284 209 12 12 53 51 92 87 234 223 410 472 541 764
60 133 127 331 147 435 3 14 12 59 20 100 15 78 23 133 36 260 4 41 8 645 9
1342 l2 1267 -783 0 -783 1 -98 -273z"/>
</g>
</svg>
